<?xml version="1.0" standalone="no"?>
<!DOCTYPE svg PUBLIC "-//W3C//DTD SVG 20010904//EN"
 "http://www.w3.org/TR/2001/REC-SVG-20010904/DTD/svg10.dtd">
<svg version="1.0" xmlns="http://www.w3.org/2000/svg"
 width="1024.000000pt" height="1024.000000pt" viewBox="0 0 1024.000000 1024.000000"
 preserveAspectRatio="xMidYMid meet">
<metadata>
Created by potrace 1.11, written by Peter Selinger 2001-2013
</metadata>
<g transform="translate(0.000000,1024.000000) scale(0.100000,-0.100000)"
fill="#000000" stroke="none">
<path d="M0 5120 l0 -5120 5120 0 5120 0 0 5120 0 5120 -5120 0 -5120 0 0
-5120z m5778 1103 l-3 -1658 195 0 c218 0 290 -11 464 -72 115 -40 212 -87
309 -149 37 -24 70 -44 72 -44 3 0 5 334 5 743 0 818 -2 795 63 927 45 92 150
196 248 244 76 38 235 74 251 58 5 -5 7 -751 5 -1658 l-3 -1649 -22 -97 c-66
-289 -191 -517 -392 -718 -444 -444 -1099 -544 -1661 -253 -335 173 -599 494
-704 858 -43 151 -58 270 -53 442 l4 154 -30 -7 c-55 -12 -309 -6 -396 10
-193 35 -404 118 -551 217 -323 217 -539 541 -616 926 -26 133 -24 404 5 540
61 281 189 520 386 717 210 210 442 335 740 398 136 28 378 30 516 4 186 -36
388 -117 535 -215 l60 -40 5 762 5 762 26 66 c33 86 67 142 120 203 89 101
255 180 387 185 l32 1 -2 -1657z"/>
<path d="M4261 5598 c-279 -28 -541 -217 -666 -479 -58 -123 -78 -215 -78
-364 0 -153 21 -245 82 -370 103 -209 277 -361 499 -435 126 -42 299 -53 433
-25 566 114 855 760 563 1259 -170 290 -489 448 -833 414z"/>
<path d="M5800 3986 c-313 -66 -563 -301 -652 -613 -30 -103 -32 -324 -5 -422
70 -255 225 -447 451 -560 121 -60 234 -84 381 -84 236 2 447 91 606 259 155
165 233 362 233 589 0 124 -13 196 -55 306 -92 240 -308 437 -559 509 -96 28
-304 36 -400 16z"/>
</g>
</svg>
