<?xml version="1.0" standalone="no"?>
<!DOCTYPE svg PUBLIC "-//W3C//DTD SVG 20010904//EN"
 "http://www.w3.org/TR/2001/REC-SVG-20010904/DTD/svg10.dtd">
<svg version="1.0" xmlns="http://www.w3.org/2000/svg"
 width="400.000000pt" height="400.000000pt" viewBox="0 0 400.000000 400.000000"
 preserveAspectRatio="xMidYMid meet">
<metadata>
Created by potrace 1.11, written by Peter Selinger 2001-2013
</metadata>
<g transform="translate(0.000000,400.000000) scale(0.100000,-0.100000)"
fill="#000000" stroke="none">
<path d="M1019 3996 c-2 -2 -40 -6 -84 -10 -236 -17 -382 -63 -537 -168 -185
-124 -330 -355 -364 -578 -3 -19 -7 -41 -9 -48 -15 -44 -20 -331 -20 -1202 0
-542 4 -1026 8 -1075 16 -184 68 -365 133 -460 13 -20 24 -38 24 -42 0 -7 78
-102 114 -137 49 -49 155 -125 217 -156 67 -34 190 -76 247 -85 21 -3 49 -8
62 -10 81 -16 315 -20 1175 -20 862 0 1164 5 1206 19 8 3 30 7 49 10 224 34
451 177 580 366 55 81 106 194 129 285 25 98 29 125 38 245 10 124 10 2015 0
2145 -25 334 -149 574 -381 740 -116 82 -276 143 -421 160 -33 4 -73 10 -90
13 -34 6 -2069 14 -2076 8z"/>
</g>
</svg>
